HIERARCHY
ROOT ui
{
	 OFFSET 0 0 0
	 CHANNELS 3 XPosition YPosition Z Position
	 EndSite
	 {
	 OFFSET 0 -1 0
	 }
}
ROOT li
{
	 OFFSET 0 0 0
	 CHANNELS 3 XPosition YPosition Z Position
	 EndSite
	 {
	 OFFSET 0 -1 0
	 }
}
ROOT ul
{
	 OFFSET 0 0 0
	 CHANNELS 3 XPosition YPosition Z Position
	 EndSite
	 {
	 OFFSET 0 -1 0
	 }
}
ROOT ll
{
	 OFFSET 0 0 0
	 CHANNELS 3 XPosition YPosition Z Position
	 EndSite
	 {
	 OFFSET 0 -1 0
	 }
}
ROOT tt
{
	 OFFSET 0 0 0
	 CHANNELS 3 XPosition YPosition Z Position
	 EndSite
	 {
	 OFFSET 0 -1 0
	 }
}
ROOT tb
{
	 OFFSET 0 0 0
	 CHANNELS 3 XPosition YPosition Z Position
	 EndSite
	 {
	 OFFSET 0 -1 0
	 }
}
ROOT td
{
	 OFFSET 0 0 0
	 CHANNELS 3 XPosition YPosition Z Position
	 EndSite
	 {
	 OFFSET 0 -1 0
	 }
}
ROOT v
{
	 OFFSET 0 0 0
	 CHANNELS 3 XPosition YPosition Z Position
	 EndSite
	 {
	 OFFSET 0 -1 0
	 }
}
ROOT bn
{
	 OFFSET 0 0 0
	 CHANNELS 3 XPosition YPosition Z Position
	 EndSite
	 {
	 OFFSET 0 -1 0
	 }
}
MOTION
Frames: 29
Frame Time: 0.002
0.032531028747558595	-0.009390015602111817	0		0.4586083679199219	-2.3151259765625	0		-0.9918745727539062	0.26441671752929685	0		-0.6800255737304688	-2.745444091796875	0		1.8748135986328125	-0.29738272094726564	0		3.444318603515625	0.006444145202636719	0		4.48037060546875	-0.17255027770996093	0		5.97877197265625	0.529569580078125	0		-0.11373046875	5.91603759765625	0		
-0.036801651000976564	-2.2906999289989472E-4	0		0.46525103759765624	-2.308281982421875	0		-0.9862883911132813	0.26827587890625	0		-0.683224609375	-2.72943017578125	0		1.8794010009765625	-0.2935010986328125	0		3.4481484375	0.02434381675720215	0		4.4870263671875	-0.16469927978515625	0		5.9882705078125	0.5283726196289062	0		-0.09803447723388672	5.92672412109375	0		
0.03762450408935547	-0.006569416999816895	0		0.47882675170898437	-2.30656201171875	0		-0.9638219604492188	0.2648286743164063	0		-0.6596121826171875	-2.725893310546875	0		1.8799273681640625	-0.29354376220703127	0		3.42303466796875	-0.012247015953063965	0		4.48722265625	-0.183717529296875	0		5.97082763671875	0.5306755981445312	0		-0.26124569702148437	5.88849609375	0		
-0.03981076431274414	-0.003281585931777954	0		0.4493311462402344	-2.30909814453125	0		-1.000302001953125	0.2653922119140625	0		-0.6590542602539062	-2.725966064453125	0		1.8733123779296874	-0.30145721435546874	0		3.42355322265625	-0.0122604398727417	0		4.47467626953125	-0.18748976135253906	0		5.971337890625	0.53069921875	0		-0.12845181274414064	5.90814013671875	0		
0.019837757110595704	0.004629918098449707	0		0.4758421325683594	-2.31160400390625	0		-1.0079430541992187	0.25744525146484376	0		-0.6924046020507812	-2.7204580078125	0		1.8389119873046875	-0.2958795166015625	0		3.430690673828125	-0.03337322235107422	0		4.476921875	-0.2024951629638672	0		5.97667236328125	0.5216719970703125	0		-0.12807266235351564	5.9080712890625	0		
-0.03883381652832031	-0.003414804935455322	0		0.4343682861328125	-2.311931396484375	0		-0.9942694702148438	0.26912637329101563	0		-0.6877879638671875	-2.71661181640625	0		1.8532548828125	-0.3041363220214844	0		3.420427490234375	-0.018159006118774416	0		4.4732822265625	-0.20937049865722657	0		5.98127099609375	0.529696533203125	0		-0.11256820678710938	5.91874169921875	0		
0.024822126388549803	0.00843358039855957	0		0.45605389404296875	-2.30234326171875	0		-0.9997672729492187	0.2731343994140625	0		-0.68215576171875	-2.710783935546875	0		1.815728759765625	-0.30248361206054686	0		3.418248779296875	-0.054070343017578126	0		4.46068017578125	-0.2120628662109375	0		5.97783349609375	0.5378964233398438	0		-0.11330229187011719	5.91969287109375	0		
-0.052747776031494144	0.010718826293945313	0		0.4555074768066406	-2.30436572265625	0		-1.0052889404296874	0.27814230346679686	0		-0.6575701904296875	-2.706280029296875	0		1.851050537109375	-0.30807406616210936	0		3.44276953125	-0.04741341781616211	0		4.45286767578125	-0.22481356811523437	0		5.977939453125	0.5220653686523438	0		-0.11213949584960937	5.9186142578125	0		
0.03627208709716797	-0.009858522415161133	0		0.4518763732910156	-2.309328369140625	0		-1.0090089721679687	0.2741194152832031	0		-0.7279861450195313	-2.699140380859375	0		1.8063092041015625	-0.314275634765625	0		3.40579296875	-0.0666849365234375	0		4.4491337890625	-0.2306118927001953	0		5.96957080078125	0.539412109375	0		-0.26153326416015626	5.8901201171875	0		
-0.040382366180419925	-0.007583377838134765	0		0.45229364013671874	-2.30935302734375	0		-1.0127549438476562	0.2711001892089844	0		-0.702452880859375	-2.69364501953125	0		1.803571533203125	-0.3181892395019531	0		3.387030029296875	-0.07125489807128907	0		4.44534130859375	-0.2373928680419922	0		5.97955419921875	0.5214593505859375	0		-0.26049026489257815	5.8890478515625	0		
0.022106122970581055	0.004317797183990478	0		0.4635694274902344	-2.31555615234375	0		-1.0043736572265625	0.2778800048828125	0		-0.7230867919921875	-2.69535498046875	0		1.78977783203125	-0.3229046325683594	0		3.397897216796875	-0.09532259368896484	0		4.4353896484375	-0.2510556335449219	0		5.975943359375	0.5297603759765624	0		-0.11199104309082031	5.91646826171875	0		
-0.03680215835571289	-0.0037029950618743895	0		0.467998779296875	-2.310630859375	0		-1.0041500244140624	0.2778055419921875	0		-0.6816790771484375	-2.693114501953125	0		1.8130772705078124	-0.32024044799804685	0		3.42633837890625	-0.083669677734375	0		4.4345703125	-0.25485821533203123	0		5.97615478515625	0.53001220703125	0		-0.11199698638916016	5.91843505859375	0		
0.02661207962036133	0.008207696914672852	0		0.45741546630859375	-2.304438720703125	0		-1.0039609375	0.27774118041992185	0		-0.6942267456054687	-2.68594384765625	0		1.7951279296875	-0.3298627319335937	0		3.379262939453125	-0.09972129821777344	0		4.4248203125	-0.25249232482910156	0		5.9631982421875	0.52250439453125	0		-0.12824574279785156	5.9086865234375	0		
-0.054252723693847656	0.0065773091316223145	0		0.4536180725097656	-2.309351318359375	0		-0.9808536987304688	0.27430035400390623	0		-0.662044677734375	-2.693521484375	0		1.7912515869140626	-0.33371051025390625	0		3.40030419921875	-0.10791476440429687	0		4.43154931640625	-0.27939532470703127	0		5.96236474609375	0.5238074951171875	0		-0.26169424438476563	5.889931640625	0		
0.03763647079467773	-0.009965407371520995	0		0.4538860168457031	-2.309318603515625	0		-1.0177059326171876	0.2748878173828125	0		-0.6977023315429688	-2.689935791015625	0		1.7822222900390625	-0.34545928955078126	0		3.40109375	-0.12975276184082032	0		4.41972021484375	-0.27896697998046877	0		5.95934326171875	0.5151595458984375	0		-0.26182449340820313	5.8899296875	0		
0.023021520614624022	0.004311606884002685	0		0.4630088195800781	-2.31742236328125	0		-0.9805776977539062	0.27424050903320313	0		-0.6953917236328125	-2.687978759765625	0		1.7793189697265626	-0.34929714965820313	0		3.4013984375	-0.12056449890136718	0		4.42776171875	-0.2858616943359375	0		5.97159814453125	0.5232699584960937	0		-0.11344550323486328	5.9194462890625	0		
0.027233299255371095	0.008284173011779784	0		0.46735043334960935	-2.312428466796875	0		-1.01422265625	0.2878006591796875	0		-0.6910488891601563	-2.684041259765625	0		1.782548095703125	-0.3452222900390625	0		3.382166259765625	-0.14303768920898438	0		4.4306689453125	-0.30065524291992185	0		5.96885302734375	0.5316490478515625	0		-0.11457134246826171	5.92049658203125	0		
0.042125373840332034	-0.006909822940826416	0		0.4826577453613281	-2.309603271484375	0		-1.0011265258789062	0.28558709716796876	0		-0.6928045654296875	-2.68598779296875	0		1.772528076171875	-0.3559122619628906	0		3.421413818359375	-0.1374712677001953	0		4.4346279296875	-0.31244912719726564	0		5.9638388671875	0.524080810546875	0		-0.12889891052246094	5.9097802734375	0		
-0.0535198860168457	0.006759543895721435	0		0.45491665649414065	-2.309044921875	0		-1.03799462890625	0.2862222900390625	0		-0.6945640258789062	-2.687921142578125	0		1.80451513671875	-0.3662896728515625	0		3.373334716796875	-0.15043202209472656	0		4.42893505859375	-0.30306369018554685	0		5.9639541015625	0.5244429931640625	0		-0.12905018615722658	5.90984130859375	0		
0.023580724716186524	0.0045565152168273925	0		0.453125244140625	-2.31090869140625	0		-1.0008856201171874	0.28563613891601564	0		-0.6963368530273437	-2.68984130859375	0		1.7985457763671875	-0.37302008056640623	0		3.390251708984375	-0.1634671630859375	0		4.4397109375	-0.3249459533691406	0		5.964056640625	0.5248159790039062	0		-0.2625596008300781	5.89013037109375	0		
-0.03851778030395508	-0.0073206348419189455	0		0.41033447265625	-2.31108203125	0		-1.0278033447265624	0.2851275939941406	0		-0.6832166137695312	-2.696997802734375	0		1.7625281982421874	-0.38124368286132815	0		3.3859541015625	-0.18814276123046875	0		4.4278369140625	-0.32444186401367187	0		5.96997314453125	0.5150962524414062	0		-0.24562022399902345	5.89692626953125	0		
0.045655040740966796	-0.0026112990379333497	0		0.4705522155761719	-2.309954345703125	0		-0.9767059326171875	0.28633697509765627	0		-0.7216696166992187	-2.676286376953125	0		1.7705965576171876	-0.3831920166015625	0		3.41247412109375	-0.16231668090820311	0		4.43583642578125	-0.33026495361328123	0		5.9700341796875	0.5154767456054687	0		-0.11343250274658204	5.91882958984375	0		
-0.050076915740966794	0.011081893920898438	0		0.4557327880859375	-2.308576171875	0		-1.033604736328125	0.29034161376953127	0		-0.6916433715820313	-2.685703369140625	0		1.8035015869140625	-0.39354498291015627	0		3.3950791015625	-0.189767822265625	0		4.440693359375	-0.343034423828125	0		5.9610849609375	0.517006103515625	0		-0.12979116821289063	5.91019921875	0		
0.042672473907470705	-0.006331827163696289	0		0.47979116821289064	-2.312834228515625	0		-1.0006621704101561	0.285869873046875	0		-0.6914993286132812	-2.68561767578125	0		1.8035445556640626	-0.393349365234375	0		3.415978515625	-0.19784640502929687	0		4.4366357421875	-0.34865594482421874	0		5.964939453125	0.5083204040527344	0		-0.13002603149414063	5.9103095703125	0		
-0.05312599563598633	0.007364387035369873	0		0.45391632080078126	-2.310266845703125	0		-0.9957654418945312	0.2808673095703125	0		-0.6574813842773437	-2.6910830078125	0		1.7903082275390625	-0.4079371643066406	0		3.4099462890625	-0.19948289489746093	0		4.4414443359375	-0.3604285888671875	0		5.95277978515625	0.5008905029296875	0		-0.2636265258789062	5.89060986328125	0		
0.03857137298583985	-0.009018051147460937	0		0.4628309631347656	-2.318271484375	0		-1.0236863403320313	0.2894086608886719	0		-0.7164280395507813	-2.691019775390625	0		1.76616845703125	-0.41434918212890626	0		3.40990966796875	-0.1992246856689453	0		4.4414140625	-0.360129638671875	0		5.9529775390625	0.5172470703125	0		-0.2639037780761719	5.89072314453125	0		
-0.03541774368286133	-0.002684921979904175	0		0.46486737060546873	-2.31616357421875	0		-1.0246470947265625	0.29751031494140623	0		-0.6763994140625	-2.690575439453125	0		1.7661026611328126	-0.41416058349609375	0		3.4005595703125	-0.2158265838623047	0		4.4653271484375	-0.36123477172851565	0		5.95674609375	0.5095248413085938	0		-0.13085910034179687	5.910662109375	0		
0.027668706893920897	0.009408073425292969	0		0.45392794799804687	-2.3098466796875	0		-0.9869260864257813	0.2879801330566406	0		-0.7272882080078125	-2.681645751953125	0		1.8008970947265626	-0.42054769897460936	0		3.434510498046875	-0.2121433563232422	0		4.461125	-0.3668948669433594	0		5.9406142578125	0.5101100769042969	0		-0.13117649841308593	5.91078076171875	0		
-0.0356871452331543	-0.0024446589946746826	0		0.46066748046875	-2.3208251953125	0		-0.99300537109375	0.2931662902832031	0		-0.6245823364257812	-2.696221923828125	0		1.791580078125	-0.4312239074707031	0		3.415139404296875	-0.22560569763183594	0		4.465771484375	-0.3797157897949219	0		5.93531640625	0.5024971618652344	0		-0.1324801025390625	5.91291259765625	0		
